<mxfile host="app.diagrams.net" modified="2020-10-24T14:55:30.577Z" agent="5.0 (Windows)" etag="lXRi57SXu9hfi1QJNoRy" version="13.8.1" type="github">
  <diagram id="Sx-x-IRmpGKMNTLv8waG" name="Page-1">
    <mxGraphModel dx="1038" dy="587" grid="1" gridSize="10" guides="1" tooltips="1" connect="1" arrows="1" fold="1" page="1" pageScale="1" pageWidth="827" pageHeight="1169" math="0" shadow="0">
      <root>
        <mxCell id="0" />
        <mxCell id="1" parent="0" />
        <mxCell id="Q6hYexjxUBeo_Eyh4dxm-11" value="平台管理员" style="shape=umlActor;verticalLabelPosition=bottom;verticalAlign=top;html=1;outlineConnect=0;fillColor=#000000;" parent="1" vertex="1">
          <mxGeometry x="760" y="50" width="30" height="60" as="geometry" />
        </mxCell>
        <mxCell id="A2vype5KfwyDWNq0axac-33" style="edgeStyle=orthogonalEdgeStyle;rounded=0;orthogonalLoop=1;jettySize=auto;html=1;" parent="1" source="A2vype5KfwyDWNq0axac-2" target="A2vype5KfwyDWNq0axac-18" edge="1">
          <mxGeometry relative="1" as="geometry">
            <Array as="points">
              <mxPoint x="300" y="190" />
              <mxPoint x="300" y="190" />
            </Array>
          </mxGeometry>
        </mxCell>
        <mxCell id="A2vype5KfwyDWNq0axac-37" style="edgeStyle=orthogonalEdgeStyle;rounded=0;orthogonalLoop=1;jettySize=auto;html=1;" parent="1" source="A2vype5KfwyDWNq0axac-2" target="A2vype5KfwyDWNq0axac-18" edge="1">
          <mxGeometry relative="1" as="geometry">
            <Array as="points">
              <mxPoint x="250" y="260" />
              <mxPoint x="250" y="260" />
            </Array>
          </mxGeometry>
        </mxCell>
        <mxCell id="A2vype5KfwyDWNq0axac-45" style="edgeStyle=orthogonalEdgeStyle;rounded=0;orthogonalLoop=1;jettySize=auto;html=1;" parent="1" source="A2vype5KfwyDWNq0axac-2" target="A2vype5KfwyDWNq0axac-18" edge="1">
          <mxGeometry relative="1" as="geometry">
            <Array as="points">
              <mxPoint x="270" y="370" />
              <mxPoint x="270" y="370" />
            </Array>
          </mxGeometry>
        </mxCell>
        <mxCell id="A2vype5KfwyDWNq0axac-50" style="edgeStyle=orthogonalEdgeStyle;rounded=0;orthogonalLoop=1;jettySize=auto;html=1;" parent="1" source="A2vype5KfwyDWNq0axac-2" target="A2vype5KfwyDWNq0axac-18" edge="1">
          <mxGeometry relative="1" as="geometry">
            <Array as="points">
              <mxPoint x="270" y="440" />
              <mxPoint x="270" y="440" />
            </Array>
          </mxGeometry>
        </mxCell>
        <mxCell id="A2vype5KfwyDWNq0axac-56" style="edgeStyle=orthogonalEdgeStyle;rounded=0;orthogonalLoop=1;jettySize=auto;html=1;" parent="1" source="A2vype5KfwyDWNq0axac-2" target="A2vype5KfwyDWNq0axac-18" edge="1">
          <mxGeometry relative="1" as="geometry">
            <Array as="points">
              <mxPoint x="330" y="500" />
              <mxPoint x="330" y="500" />
            </Array>
          </mxGeometry>
        </mxCell>
        <mxCell id="A2vype5KfwyDWNq0axac-61" style="edgeStyle=orthogonalEdgeStyle;rounded=0;orthogonalLoop=1;jettySize=auto;html=1;" parent="1" source="A2vype5KfwyDWNq0axac-2" target="A2vype5KfwyDWNq0axac-18" edge="1">
          <mxGeometry relative="1" as="geometry">
            <Array as="points">
              <mxPoint x="330" y="560" />
              <mxPoint x="330" y="560" />
            </Array>
          </mxGeometry>
        </mxCell>
        <mxCell id="A2vype5KfwyDWNq0axac-66" style="edgeStyle=orthogonalEdgeStyle;rounded=0;orthogonalLoop=1;jettySize=auto;html=1;" parent="1" source="A2vype5KfwyDWNq0axac-2" target="A2vype5KfwyDWNq0axac-18" edge="1">
          <mxGeometry relative="1" as="geometry" />
        </mxCell>
        <mxCell id="A2vype5KfwyDWNq0axac-71" style="edgeStyle=orthogonalEdgeStyle;rounded=0;orthogonalLoop=1;jettySize=auto;html=1;" parent="1" source="A2vype5KfwyDWNq0axac-2" target="A2vype5KfwyDWNq0axac-18" edge="1">
          <mxGeometry relative="1" as="geometry">
            <Array as="points">
              <mxPoint x="280" y="710" />
              <mxPoint x="280" y="710" />
            </Array>
          </mxGeometry>
        </mxCell>
        <mxCell id="A2vype5KfwyDWNq0axac-93" style="edgeStyle=orthogonalEdgeStyle;rounded=0;orthogonalLoop=1;jettySize=auto;html=1;" parent="1" source="A2vype5KfwyDWNq0axac-2" target="A2vype5KfwyDWNq0axac-18" edge="1">
          <mxGeometry relative="1" as="geometry">
            <Array as="points">
              <mxPoint x="320" y="770" />
              <mxPoint x="320" y="770" />
            </Array>
          </mxGeometry>
        </mxCell>
        <mxCell id="A2vype5KfwyDWNq0axac-98" style="edgeStyle=orthogonalEdgeStyle;rounded=0;orthogonalLoop=1;jettySize=auto;html=1;" parent="1" source="A2vype5KfwyDWNq0axac-2" target="A2vype5KfwyDWNq0axac-18" edge="1">
          <mxGeometry relative="1" as="geometry">
            <Array as="points">
              <mxPoint x="230" y="850" />
              <mxPoint x="230" y="850" />
            </Array>
          </mxGeometry>
        </mxCell>
        <mxCell id="A2vype5KfwyDWNq0axac-2" value="" style="rounded=0;whiteSpace=wrap;html=1;" parent="1" vertex="1">
          <mxGeometry x="167.5" y="150" width="15" height="970" as="geometry" />
        </mxCell>
        <mxCell id="A2vype5KfwyDWNq0axac-3" value="前端网站" style="ellipse;whiteSpace=wrap;html=1;aspect=fixed;" parent="1" vertex="1">
          <mxGeometry x="327.5" y="50" width="60" height="60" as="geometry" />
        </mxCell>
        <mxCell id="A2vype5KfwyDWNq0axac-8" value="商家" style="shape=umlActor;verticalLabelPosition=bottom;verticalAlign=top;html=1;outlineConnect=0;fillColor=#000000;" parent="1" vertex="1">
          <mxGeometry x="160" y="50" width="30" height="60" as="geometry" />
        </mxCell>
        <mxCell id="A2vype5KfwyDWNq0axac-41" style="edgeStyle=orthogonalEdgeStyle;rounded=0;orthogonalLoop=1;jettySize=auto;html=1;" parent="1" source="A2vype5KfwyDWNq0axac-9" target="A2vype5KfwyDWNq0axac-18" edge="1">
          <mxGeometry relative="1" as="geometry">
            <Array as="points">
              <mxPoint x="750" y="310" />
              <mxPoint x="750" y="310" />
            </Array>
          </mxGeometry>
        </mxCell>
        <mxCell id="A2vype5KfwyDWNq0axac-9" value="" style="rounded=0;whiteSpace=wrap;html=1;" parent="1" vertex="1">
          <mxGeometry x="767.5" y="150" width="15" height="970" as="geometry" />
        </mxCell>
        <mxCell id="A2vype5KfwyDWNq0axac-89" style="edgeStyle=orthogonalEdgeStyle;rounded=0;orthogonalLoop=1;jettySize=auto;html=1;" parent="1" source="A2vype5KfwyDWNq0axac-12" target="A2vype5KfwyDWNq0axac-80" edge="1">
          <mxGeometry relative="1" as="geometry">
            <Array as="points">
              <mxPoint x="310" y="1410" />
              <mxPoint x="310" y="1410" />
            </Array>
          </mxGeometry>
        </mxCell>
        <mxCell id="A2vype5KfwyDWNq0axac-131" style="edgeStyle=orthogonalEdgeStyle;rounded=0;orthogonalLoop=1;jettySize=auto;html=1;" parent="1" source="A2vype5KfwyDWNq0axac-12" target="A2vype5KfwyDWNq0axac-80" edge="1">
          <mxGeometry relative="1" as="geometry">
            <Array as="points">
              <mxPoint x="300" y="1490" />
              <mxPoint x="300" y="1490" />
            </Array>
          </mxGeometry>
        </mxCell>
        <mxCell id="A2vype5KfwyDWNq0axac-135" style="edgeStyle=orthogonalEdgeStyle;rounded=0;orthogonalLoop=1;jettySize=auto;html=1;" parent="1" source="A2vype5KfwyDWNq0axac-12" target="A2vype5KfwyDWNq0axac-80" edge="1">
          <mxGeometry relative="1" as="geometry">
            <Array as="points">
              <mxPoint x="300" y="1570" />
              <mxPoint x="300" y="1570" />
            </Array>
          </mxGeometry>
        </mxCell>
        <mxCell id="A2vype5KfwyDWNq0axac-12" value="" style="rounded=0;whiteSpace=wrap;html=1;" parent="1" vertex="1">
          <mxGeometry x="167.5" y="1240" width="15" height="480" as="geometry" />
        </mxCell>
        <mxCell id="A2vype5KfwyDWNq0axac-13" value="用户" style="shape=umlActor;verticalLabelPosition=bottom;verticalAlign=top;html=1;outlineConnect=0;fillColor=#000000;" parent="1" vertex="1">
          <mxGeometry x="160" y="1140" width="30" height="60" as="geometry" />
        </mxCell>
        <mxCell id="A2vype5KfwyDWNq0axac-35" style="edgeStyle=orthogonalEdgeStyle;rounded=0;orthogonalLoop=1;jettySize=auto;html=1;" parent="1" source="A2vype5KfwyDWNq0axac-18" target="A2vype5KfwyDWNq0axac-2" edge="1">
          <mxGeometry relative="1" as="geometry">
            <Array as="points">
              <mxPoint x="270" y="220" />
              <mxPoint x="270" y="220" />
            </Array>
          </mxGeometry>
        </mxCell>
        <mxCell id="A2vype5KfwyDWNq0axac-39" style="edgeStyle=orthogonalEdgeStyle;rounded=0;orthogonalLoop=1;jettySize=auto;html=1;" parent="1" source="A2vype5KfwyDWNq0axac-18" target="A2vype5KfwyDWNq0axac-9" edge="1">
          <mxGeometry relative="1" as="geometry">
            <Array as="points">
              <mxPoint x="730" y="280" />
              <mxPoint x="730" y="280" />
            </Array>
          </mxGeometry>
        </mxCell>
        <mxCell id="A2vype5KfwyDWNq0axac-43" style="edgeStyle=orthogonalEdgeStyle;rounded=0;orthogonalLoop=1;jettySize=auto;html=1;" parent="1" source="A2vype5KfwyDWNq0axac-18" target="A2vype5KfwyDWNq0axac-2" edge="1">
          <mxGeometry relative="1" as="geometry">
            <Array as="points">
              <mxPoint x="300" y="330" />
              <mxPoint x="300" y="330" />
            </Array>
          </mxGeometry>
        </mxCell>
        <mxCell id="A2vype5KfwyDWNq0axac-48" style="edgeStyle=orthogonalEdgeStyle;rounded=0;orthogonalLoop=1;jettySize=auto;html=1;" parent="1" source="A2vype5KfwyDWNq0axac-18" target="A2vype5KfwyDWNq0axac-2" edge="1">
          <mxGeometry relative="1" as="geometry">
            <Array as="points">
              <mxPoint x="290" y="410" />
              <mxPoint x="290" y="410" />
            </Array>
          </mxGeometry>
        </mxCell>
        <mxCell id="A2vype5KfwyDWNq0axac-59" style="edgeStyle=orthogonalEdgeStyle;rounded=0;orthogonalLoop=1;jettySize=auto;html=1;" parent="1" source="A2vype5KfwyDWNq0axac-18" target="A2vype5KfwyDWNq0axac-2" edge="1">
          <mxGeometry relative="1" as="geometry">
            <Array as="points">
              <mxPoint x="320" y="530" />
              <mxPoint x="320" y="530" />
            </Array>
          </mxGeometry>
        </mxCell>
        <mxCell id="A2vype5KfwyDWNq0axac-64" style="edgeStyle=orthogonalEdgeStyle;rounded=0;orthogonalLoop=1;jettySize=auto;html=1;" parent="1" source="A2vype5KfwyDWNq0axac-18" target="A2vype5KfwyDWNq0axac-2" edge="1">
          <mxGeometry relative="1" as="geometry">
            <Array as="points">
              <mxPoint x="330" y="600" />
              <mxPoint x="330" y="600" />
            </Array>
          </mxGeometry>
        </mxCell>
        <mxCell id="A2vype5KfwyDWNq0axac-68" style="edgeStyle=orthogonalEdgeStyle;rounded=0;orthogonalLoop=1;jettySize=auto;html=1;" parent="1" source="A2vype5KfwyDWNq0axac-18" target="A2vype5KfwyDWNq0axac-2" edge="1">
          <mxGeometry relative="1" as="geometry">
            <Array as="points">
              <mxPoint x="320" y="670" />
              <mxPoint x="320" y="670" />
            </Array>
          </mxGeometry>
        </mxCell>
        <mxCell id="A2vype5KfwyDWNq0axac-73" style="edgeStyle=orthogonalEdgeStyle;rounded=0;orthogonalLoop=1;jettySize=auto;html=1;" parent="1" source="A2vype5KfwyDWNq0axac-18" target="A2vype5KfwyDWNq0axac-2" edge="1">
          <mxGeometry relative="1" as="geometry">
            <Array as="points">
              <mxPoint x="290" y="740" />
              <mxPoint x="290" y="740" />
            </Array>
          </mxGeometry>
        </mxCell>
        <mxCell id="A2vype5KfwyDWNq0axac-96" style="edgeStyle=orthogonalEdgeStyle;rounded=0;orthogonalLoop=1;jettySize=auto;html=1;" parent="1" source="A2vype5KfwyDWNq0axac-18" target="A2vype5KfwyDWNq0axac-2" edge="1">
          <mxGeometry relative="1" as="geometry">
            <Array as="points">
              <mxPoint x="280" y="810" />
              <mxPoint x="280" y="810" />
            </Array>
          </mxGeometry>
        </mxCell>
        <mxCell id="A2vype5KfwyDWNq0axac-101" style="edgeStyle=orthogonalEdgeStyle;rounded=0;orthogonalLoop=1;jettySize=auto;html=1;" parent="1" source="A2vype5KfwyDWNq0axac-18" target="A2vype5KfwyDWNq0axac-2" edge="1">
          <mxGeometry relative="1" as="geometry">
            <Array as="points">
              <mxPoint x="290" y="880" />
              <mxPoint x="290" y="880" />
            </Array>
          </mxGeometry>
        </mxCell>
        <mxCell id="A2vype5KfwyDWNq0axac-18" value="" style="rounded=0;whiteSpace=wrap;html=1;" parent="1" vertex="1">
          <mxGeometry x="350" y="150" width="15" height="970" as="geometry" />
        </mxCell>
        <mxCell id="A2vype5KfwyDWNq0axac-34" value="创建商品" style="text;html=1;strokeColor=none;fillColor=none;align=center;verticalAlign=middle;whiteSpace=wrap;rounded=0;" parent="1" vertex="1">
          <mxGeometry x="230" y="170" width="70" height="20" as="geometry" />
        </mxCell>
        <mxCell id="A2vype5KfwyDWNq0axac-36" value="请求商品信息" style="text;html=1;strokeColor=none;fillColor=none;align=center;verticalAlign=middle;whiteSpace=wrap;rounded=0;" parent="1" vertex="1">
          <mxGeometry x="222.5" y="200" width="85" height="20" as="geometry" />
        </mxCell>
        <mxCell id="A2vype5KfwyDWNq0axac-38" value="提交商品信息" style="text;html=1;strokeColor=none;fillColor=none;align=center;verticalAlign=middle;whiteSpace=wrap;rounded=0;" parent="1" vertex="1">
          <mxGeometry x="225" y="240" width="80" height="20" as="geometry" />
        </mxCell>
        <mxCell id="A2vype5KfwyDWNq0axac-40" value="商品请求上架审核" style="text;html=1;strokeColor=none;fillColor=none;align=center;verticalAlign=middle;whiteSpace=wrap;rounded=0;" parent="1" vertex="1">
          <mxGeometry x="530" y="260" width="120" height="20" as="geometry" />
        </mxCell>
        <mxCell id="A2vype5KfwyDWNq0axac-42" value="审核通过" style="text;html=1;strokeColor=none;fillColor=none;align=center;verticalAlign=middle;whiteSpace=wrap;rounded=0;" parent="1" vertex="1">
          <mxGeometry x="530" y="290" width="120" height="20" as="geometry" />
        </mxCell>
        <mxCell id="A2vype5KfwyDWNq0axac-44" value="商品可上架" style="text;html=1;strokeColor=none;fillColor=none;align=center;verticalAlign=middle;whiteSpace=wrap;rounded=0;" parent="1" vertex="1">
          <mxGeometry x="227.5" y="310" width="75" height="20" as="geometry" />
        </mxCell>
        <mxCell id="A2vype5KfwyDWNq0axac-46" value="商品上架" style="text;html=1;strokeColor=none;fillColor=none;align=center;verticalAlign=middle;whiteSpace=wrap;rounded=0;" parent="1" vertex="1">
          <mxGeometry x="232.5" y="350" width="65" height="20" as="geometry" />
        </mxCell>
        <mxCell id="A2vype5KfwyDWNq0axac-49" value="商品上架成功" style="text;html=1;strokeColor=none;fillColor=none;align=center;verticalAlign=middle;whiteSpace=wrap;rounded=0;" parent="1" vertex="1">
          <mxGeometry x="217.5" y="390" width="95" height="20" as="geometry" />
        </mxCell>
        <mxCell id="A2vype5KfwyDWNq0axac-51" style="edgeStyle=orthogonalEdgeStyle;rounded=0;orthogonalLoop=1;jettySize=auto;html=1;" parent="1" edge="1">
          <mxGeometry relative="1" as="geometry">
            <mxPoint x="350" y="470" as="sourcePoint" />
            <mxPoint x="182.5" y="470" as="targetPoint" />
            <Array as="points">
              <mxPoint x="290" y="470" />
              <mxPoint x="290" y="470" />
            </Array>
          </mxGeometry>
        </mxCell>
        <mxCell id="A2vype5KfwyDWNq0axac-52" value="商品下架" style="text;html=1;strokeColor=none;fillColor=none;align=center;verticalAlign=middle;whiteSpace=wrap;rounded=0;" parent="1" vertex="1">
          <mxGeometry x="232.5" y="420" width="65" height="20" as="geometry" />
        </mxCell>
        <mxCell id="A2vype5KfwyDWNq0axac-53" value="商品下架成功" style="text;html=1;strokeColor=none;fillColor=none;align=center;verticalAlign=middle;whiteSpace=wrap;rounded=0;" parent="1" vertex="1">
          <mxGeometry x="222.5" y="450" width="87.5" height="20" as="geometry" />
        </mxCell>
        <mxCell id="A2vype5KfwyDWNq0axac-58" value="创建优惠券" style="text;html=1;strokeColor=none;fillColor=none;align=center;verticalAlign=middle;whiteSpace=wrap;rounded=0;" parent="1" vertex="1">
          <mxGeometry x="233.25" y="480" width="66" height="20" as="geometry" />
        </mxCell>
        <mxCell id="A2vype5KfwyDWNq0axac-60" value="请求优惠券信息" style="text;html=1;strokeColor=none;fillColor=none;align=center;verticalAlign=middle;whiteSpace=wrap;rounded=0;" parent="1" vertex="1">
          <mxGeometry x="222.25" y="510" width="88" height="20" as="geometry" />
        </mxCell>
        <mxCell id="A2vype5KfwyDWNq0axac-62" value="提交优惠券信息" style="text;html=1;strokeColor=none;fillColor=none;align=center;verticalAlign=middle;whiteSpace=wrap;rounded=0;" parent="1" vertex="1">
          <mxGeometry x="213.75" y="540" width="105" height="20" as="geometry" />
        </mxCell>
        <mxCell id="A2vype5KfwyDWNq0axac-65" value="优惠券创建成功" style="text;html=1;strokeColor=none;fillColor=none;align=center;verticalAlign=middle;whiteSpace=wrap;rounded=0;" parent="1" vertex="1">
          <mxGeometry x="217.5" y="574.5" width="94" height="20" as="geometry" />
        </mxCell>
        <mxCell id="A2vype5KfwyDWNq0axac-67" value="发放优惠券" style="text;html=1;strokeColor=none;fillColor=none;align=center;verticalAlign=middle;whiteSpace=wrap;rounded=0;" parent="1" vertex="1">
          <mxGeometry x="228.25" y="610" width="76" height="20" as="geometry" />
        </mxCell>
        <mxCell id="A2vype5KfwyDWNq0axac-70" value="请求优惠券参数" style="text;html=1;strokeColor=none;fillColor=none;align=center;verticalAlign=middle;whiteSpace=wrap;rounded=0;" parent="1" vertex="1">
          <mxGeometry x="218.75" y="650" width="95" height="20" as="geometry" />
        </mxCell>
        <mxCell id="A2vype5KfwyDWNq0axac-72" value="提交参数" style="text;html=1;strokeColor=none;fillColor=none;align=center;verticalAlign=middle;whiteSpace=wrap;rounded=0;" parent="1" vertex="1">
          <mxGeometry x="238.75" y="690" width="55" height="20" as="geometry" />
        </mxCell>
        <mxCell id="A2vype5KfwyDWNq0axac-74" value="优惠券成功发放" style="text;html=1;strokeColor=none;fillColor=none;align=center;verticalAlign=middle;whiteSpace=wrap;rounded=0;" parent="1" vertex="1">
          <mxGeometry x="219.25" y="720" width="94" height="20" as="geometry" />
        </mxCell>
        <mxCell id="A2vype5KfwyDWNq0axac-75" value="平台管理员" style="shape=umlActor;verticalLabelPosition=bottom;verticalAlign=top;html=1;outlineConnect=0;fillColor=#000000;" parent="1" vertex="1">
          <mxGeometry x="760" y="1140" width="30" height="60" as="geometry" />
        </mxCell>
        <mxCell id="A2vype5KfwyDWNq0axac-76" value="前端网站" style="ellipse;whiteSpace=wrap;html=1;aspect=fixed;" parent="1" vertex="1">
          <mxGeometry x="327.5" y="1140" width="60" height="60" as="geometry" />
        </mxCell>
        <mxCell id="A2vype5KfwyDWNq0axac-78" value="" style="rounded=0;whiteSpace=wrap;html=1;" parent="1" vertex="1">
          <mxGeometry x="767.5" y="1240" width="15" height="480" as="geometry" />
        </mxCell>
        <mxCell id="A2vype5KfwyDWNq0axac-91" style="edgeStyle=orthogonalEdgeStyle;rounded=0;orthogonalLoop=1;jettySize=auto;html=1;" parent="1" source="A2vype5KfwyDWNq0axac-80" target="A2vype5KfwyDWNq0axac-12" edge="1">
          <mxGeometry relative="1" as="geometry">
            <Array as="points">
              <mxPoint x="280" y="1450" />
              <mxPoint x="280" y="1450" />
            </Array>
          </mxGeometry>
        </mxCell>
        <mxCell id="A2vype5KfwyDWNq0axac-132" style="edgeStyle=orthogonalEdgeStyle;rounded=0;orthogonalLoop=1;jettySize=auto;html=1;" parent="1" source="A2vype5KfwyDWNq0axac-80" target="A2vype5KfwyDWNq0axac-12" edge="1">
          <mxGeometry relative="1" as="geometry">
            <Array as="points">
              <mxPoint x="310" y="1530" />
              <mxPoint x="310" y="1530" />
            </Array>
          </mxGeometry>
        </mxCell>
        <mxCell id="A2vype5KfwyDWNq0axac-136" style="edgeStyle=orthogonalEdgeStyle;rounded=0;orthogonalLoop=1;jettySize=auto;html=1;" parent="1" source="A2vype5KfwyDWNq0axac-80" target="A2vype5KfwyDWNq0axac-12" edge="1">
          <mxGeometry relative="1" as="geometry">
            <Array as="points">
              <mxPoint x="250" y="1610" />
              <mxPoint x="250" y="1610" />
            </Array>
          </mxGeometry>
        </mxCell>
        <mxCell id="A2vype5KfwyDWNq0axac-139" style="edgeStyle=orthogonalEdgeStyle;rounded=0;orthogonalLoop=1;jettySize=auto;html=1;startArrow=classic;startFill=1;endArrow=none;endFill=0;" parent="1" source="A2vype5KfwyDWNq0axac-80" target="A2vype5KfwyDWNq0axac-12" edge="1">
          <mxGeometry relative="1" as="geometry">
            <Array as="points">
              <mxPoint x="250" y="1650" />
              <mxPoint x="250" y="1650" />
            </Array>
          </mxGeometry>
        </mxCell>
        <mxCell id="A2vype5KfwyDWNq0axac-141" style="edgeStyle=orthogonalEdgeStyle;rounded=0;orthogonalLoop=1;jettySize=auto;html=1;" parent="1" source="A2vype5KfwyDWNq0axac-80" target="A2vype5KfwyDWNq0axac-12" edge="1">
          <mxGeometry relative="1" as="geometry">
            <Array as="points">
              <mxPoint x="330" y="1690" />
              <mxPoint x="330" y="1690" />
            </Array>
          </mxGeometry>
        </mxCell>
        <mxCell id="A2vype5KfwyDWNq0axac-80" value="" style="rounded=0;whiteSpace=wrap;html=1;" parent="1" vertex="1">
          <mxGeometry x="350" y="1240" width="15" height="480" as="geometry" />
        </mxCell>
        <mxCell id="A2vype5KfwyDWNq0axac-90" value="查看商品" style="text;html=1;strokeColor=none;fillColor=none;align=center;verticalAlign=middle;whiteSpace=wrap;rounded=0;" parent="1" vertex="1">
          <mxGeometry x="237" y="1390" width="55" height="20" as="geometry" />
        </mxCell>
        <mxCell id="A2vype5KfwyDWNq0axac-92" value="显示商品信息" style="text;html=1;strokeColor=none;fillColor=none;align=center;verticalAlign=middle;whiteSpace=wrap;rounded=0;" parent="1" vertex="1">
          <mxGeometry x="228.25" y="1430" width="76" height="20" as="geometry" />
        </mxCell>
        <mxCell id="A2vype5KfwyDWNq0axac-94" value="修改商品信息" style="text;html=1;strokeColor=none;fillColor=none;align=center;verticalAlign=middle;whiteSpace=wrap;rounded=0;" parent="1" vertex="1">
          <mxGeometry x="228.25" y="750" width="76" height="20" as="geometry" />
        </mxCell>
        <mxCell id="A2vype5KfwyDWNq0axac-97" value="请求修改参数" style="text;html=1;strokeColor=none;fillColor=none;align=center;verticalAlign=middle;whiteSpace=wrap;rounded=0;" parent="1" vertex="1">
          <mxGeometry x="228.25" y="790" width="76" height="20" as="geometry" />
        </mxCell>
        <mxCell id="A2vype5KfwyDWNq0axac-100" value="提交修改参数" style="text;html=1;strokeColor=none;fillColor=none;align=center;verticalAlign=middle;whiteSpace=wrap;rounded=0;" parent="1" vertex="1">
          <mxGeometry x="229.25" y="830" width="74" height="20" as="geometry" />
        </mxCell>
        <mxCell id="A2vype5KfwyDWNq0axac-102" value="修改完成" style="text;html=1;strokeColor=none;fillColor=none;align=center;verticalAlign=middle;whiteSpace=wrap;rounded=0;" parent="1" vertex="1">
          <mxGeometry x="235.25" y="860" width="62" height="20" as="geometry" />
        </mxCell>
        <mxCell id="A2vype5KfwyDWNq0axac-119" style="edgeStyle=orthogonalEdgeStyle;rounded=0;orthogonalLoop=1;jettySize=auto;html=1;" parent="1" edge="1">
          <mxGeometry relative="1" as="geometry">
            <mxPoint x="182.5" y="910" as="sourcePoint" />
            <mxPoint x="350" y="910" as="targetPoint" />
            <Array as="points">
              <mxPoint x="330" y="910" />
              <mxPoint x="330" y="910" />
            </Array>
          </mxGeometry>
        </mxCell>
        <mxCell id="A2vype5KfwyDWNq0axac-120" style="edgeStyle=orthogonalEdgeStyle;rounded=0;orthogonalLoop=1;jettySize=auto;html=1;" parent="1" edge="1">
          <mxGeometry relative="1" as="geometry">
            <mxPoint x="182.5" y="970" as="sourcePoint" />
            <mxPoint x="350" y="970" as="targetPoint" />
            <Array as="points">
              <mxPoint x="330" y="970" />
              <mxPoint x="330" y="970" />
            </Array>
          </mxGeometry>
        </mxCell>
        <mxCell id="A2vype5KfwyDWNq0axac-121" style="edgeStyle=orthogonalEdgeStyle;rounded=0;orthogonalLoop=1;jettySize=auto;html=1;" parent="1" edge="1">
          <mxGeometry relative="1" as="geometry">
            <mxPoint x="182.5" y="1045" as="sourcePoint" />
            <mxPoint x="350" y="1045" as="targetPoint" />
          </mxGeometry>
        </mxCell>
        <mxCell id="A2vype5KfwyDWNq0axac-122" style="edgeStyle=orthogonalEdgeStyle;rounded=0;orthogonalLoop=1;jettySize=auto;html=1;" parent="1" edge="1">
          <mxGeometry relative="1" as="geometry">
            <mxPoint x="350" y="940" as="sourcePoint" />
            <mxPoint x="182.5" y="940" as="targetPoint" />
            <Array as="points">
              <mxPoint x="320" y="940" />
              <mxPoint x="320" y="940" />
            </Array>
          </mxGeometry>
        </mxCell>
        <mxCell id="A2vype5KfwyDWNq0axac-123" style="edgeStyle=orthogonalEdgeStyle;rounded=0;orthogonalLoop=1;jettySize=auto;html=1;" parent="1" edge="1">
          <mxGeometry relative="1" as="geometry">
            <mxPoint x="350" y="1010" as="sourcePoint" />
            <mxPoint x="182.5" y="1010" as="targetPoint" />
            <Array as="points">
              <mxPoint x="330" y="1010" />
              <mxPoint x="330" y="1010" />
            </Array>
          </mxGeometry>
        </mxCell>
        <mxCell id="A2vype5KfwyDWNq0axac-124" value="创建活动" style="text;html=1;strokeColor=none;fillColor=none;align=center;verticalAlign=middle;whiteSpace=wrap;rounded=0;" parent="1" vertex="1">
          <mxGeometry x="233.25" y="890" width="66" height="20" as="geometry" />
        </mxCell>
        <mxCell id="A2vype5KfwyDWNq0axac-125" value="请求活动信息" style="text;html=1;strokeColor=none;fillColor=none;align=center;verticalAlign=middle;whiteSpace=wrap;rounded=0;" parent="1" vertex="1">
          <mxGeometry x="222.25" y="920" width="88" height="20" as="geometry" />
        </mxCell>
        <mxCell id="A2vype5KfwyDWNq0axac-126" value="提交活动信息" style="text;html=1;strokeColor=none;fillColor=none;align=center;verticalAlign=middle;whiteSpace=wrap;rounded=0;" parent="1" vertex="1">
          <mxGeometry x="213.75" y="950" width="105" height="20" as="geometry" />
        </mxCell>
        <mxCell id="A2vype5KfwyDWNq0axac-127" value="活动创建成功" style="text;html=1;strokeColor=none;fillColor=none;align=center;verticalAlign=middle;whiteSpace=wrap;rounded=0;" parent="1" vertex="1">
          <mxGeometry x="217.5" y="984.5" width="94" height="20" as="geometry" />
        </mxCell>
        <mxCell id="A2vype5KfwyDWNq0axac-128" value="开放活动" style="text;html=1;strokeColor=none;fillColor=none;align=center;verticalAlign=middle;whiteSpace=wrap;rounded=0;" parent="1" vertex="1">
          <mxGeometry x="228.25" y="1020" width="76" height="20" as="geometry" />
        </mxCell>
        <mxCell id="A2vype5KfwyDWNq0axac-129" style="edgeStyle=orthogonalEdgeStyle;rounded=0;orthogonalLoop=1;jettySize=auto;html=1;" parent="1" edge="1">
          <mxGeometry relative="1" as="geometry">
            <mxPoint x="350" y="1080" as="sourcePoint" />
            <mxPoint x="182.5" y="1080" as="targetPoint" />
            <Array as="points">
              <mxPoint x="330" y="1080" />
              <mxPoint x="330" y="1080" />
            </Array>
          </mxGeometry>
        </mxCell>
        <mxCell id="A2vype5KfwyDWNq0axac-130" value="活动开放" style="text;html=1;strokeColor=none;fillColor=none;align=center;verticalAlign=middle;whiteSpace=wrap;rounded=0;" parent="1" vertex="1">
          <mxGeometry x="228.25" y="1060" width="76" height="20" as="geometry" />
        </mxCell>
        <mxCell id="A2vype5KfwyDWNq0axac-133" value="领取优惠券" style="text;html=1;strokeColor=none;fillColor=none;align=center;verticalAlign=middle;whiteSpace=wrap;rounded=0;" parent="1" vertex="1">
          <mxGeometry x="233.25" y="1470" width="66" height="20" as="geometry" />
        </mxCell>
        <mxCell id="A2vype5KfwyDWNq0axac-134" value="领取成功" style="text;html=1;strokeColor=none;fillColor=none;align=center;verticalAlign=middle;whiteSpace=wrap;rounded=0;" parent="1" vertex="1">
          <mxGeometry x="238.25" y="1510" width="56" height="20" as="geometry" />
        </mxCell>
        <mxCell id="A2vype5KfwyDWNq0axac-137" value="查询商品" style="text;html=1;strokeColor=none;fillColor=none;align=center;verticalAlign=middle;whiteSpace=wrap;rounded=0;" parent="1" vertex="1">
          <mxGeometry x="238.25" y="1550" width="56" height="20" as="geometry" />
        </mxCell>
        <mxCell id="A2vype5KfwyDWNq0axac-138" value="请求查询信息" style="text;html=1;strokeColor=none;fillColor=none;align=center;verticalAlign=middle;whiteSpace=wrap;rounded=0;" parent="1" vertex="1">
          <mxGeometry x="225.37" y="1590" width="81.75" height="20" as="geometry" />
        </mxCell>
        <mxCell id="A2vype5KfwyDWNq0axac-140" value="提交查询信息" style="text;html=1;strokeColor=none;fillColor=none;align=center;verticalAlign=middle;whiteSpace=wrap;rounded=0;" parent="1" vertex="1">
          <mxGeometry x="225.38" y="1630" width="81.75" height="20" as="geometry" />
        </mxCell>
        <mxCell id="A2vype5KfwyDWNq0axac-142" value="显示查询结果" style="text;html=1;strokeColor=none;fillColor=none;align=center;verticalAlign=middle;whiteSpace=wrap;rounded=0;" parent="1" vertex="1">
          <mxGeometry x="227.5" y="1670" width="81.75" height="20" as="geometry" />
        </mxCell>
        <mxCell id="vy3aPQ3eziD7prv3lXkY-1" style="edgeStyle=orthogonalEdgeStyle;rounded=0;orthogonalLoop=1;jettySize=auto;html=1;" edge="1" parent="1" source="vy3aPQ3eziD7prv3lXkY-5" target="vy3aPQ3eziD7prv3lXkY-18">
          <mxGeometry relative="1" as="geometry">
            <Array as="points">
              <mxPoint x="260" y="2050" />
              <mxPoint x="260" y="2050" />
            </Array>
          </mxGeometry>
        </mxCell>
        <mxCell id="vy3aPQ3eziD7prv3lXkY-31" style="edgeStyle=orthogonalEdgeStyle;rounded=0;orthogonalLoop=1;jettySize=auto;html=1;startArrow=classic;startFill=1;endArrow=none;endFill=0;" edge="1" parent="1" source="vy3aPQ3eziD7prv3lXkY-5" target="vy3aPQ3eziD7prv3lXkY-18">
          <mxGeometry relative="1" as="geometry">
            <Array as="points">
              <mxPoint x="330" y="2000" />
              <mxPoint x="330" y="2000" />
            </Array>
          </mxGeometry>
        </mxCell>
        <mxCell id="vy3aPQ3eziD7prv3lXkY-32" style="edgeStyle=orthogonalEdgeStyle;rounded=0;orthogonalLoop=1;jettySize=auto;html=1;startArrow=none;startFill=0;endArrow=open;endFill=0;" edge="1" parent="1" source="vy3aPQ3eziD7prv3lXkY-5" target="vy3aPQ3eziD7prv3lXkY-18">
          <mxGeometry relative="1" as="geometry">
            <Array as="points">
              <mxPoint x="330" y="1960" />
              <mxPoint x="330" y="1960" />
            </Array>
          </mxGeometry>
        </mxCell>
        <mxCell id="vy3aPQ3eziD7prv3lXkY-5" value="" style="rounded=0;whiteSpace=wrap;html=1;" vertex="1" parent="1">
          <mxGeometry x="167.5" y="1880" width="15" height="480" as="geometry" />
        </mxCell>
        <mxCell id="vy3aPQ3eziD7prv3lXkY-6" value="用户" style="shape=umlActor;verticalLabelPosition=bottom;verticalAlign=top;html=1;outlineConnect=0;fillColor=#000000;" vertex="1" parent="1">
          <mxGeometry x="160" y="1780" width="30" height="60" as="geometry" />
        </mxCell>
        <mxCell id="vy3aPQ3eziD7prv3lXkY-7" value="平台管理员" style="shape=umlActor;verticalLabelPosition=bottom;verticalAlign=top;html=1;outlineConnect=0;fillColor=#000000;" vertex="1" parent="1">
          <mxGeometry x="760" y="1780" width="30" height="60" as="geometry" />
        </mxCell>
        <mxCell id="vy3aPQ3eziD7prv3lXkY-8" value="前端网站" style="ellipse;whiteSpace=wrap;html=1;aspect=fixed;" vertex="1" parent="1">
          <mxGeometry x="327.5" y="1780" width="60" height="60" as="geometry" />
        </mxCell>
        <mxCell id="vy3aPQ3eziD7prv3lXkY-9" style="edgeStyle=orthogonalEdgeStyle;rounded=0;orthogonalLoop=1;jettySize=auto;html=1;" edge="1" parent="1" source="vy3aPQ3eziD7prv3lXkY-10" target="vy3aPQ3eziD7prv3lXkY-18">
          <mxGeometry relative="1" as="geometry">
            <Array as="points">
              <mxPoint x="500" y="2120" />
              <mxPoint x="500" y="2120" />
            </Array>
          </mxGeometry>
        </mxCell>
        <mxCell id="vy3aPQ3eziD7prv3lXkY-10" value="" style="rounded=0;whiteSpace=wrap;html=1;" vertex="1" parent="1">
          <mxGeometry x="767.5" y="1880" width="15" height="480" as="geometry" />
        </mxCell>
        <mxCell id="vy3aPQ3eziD7prv3lXkY-11" style="edgeStyle=orthogonalEdgeStyle;rounded=0;orthogonalLoop=1;jettySize=auto;html=1;" edge="1" parent="1" source="vy3aPQ3eziD7prv3lXkY-18" target="vy3aPQ3eziD7prv3lXkY-10">
          <mxGeometry relative="1" as="geometry">
            <Array as="points">
              <mxPoint x="470" y="2080" />
              <mxPoint x="470" y="2080" />
            </Array>
          </mxGeometry>
        </mxCell>
        <mxCell id="vy3aPQ3eziD7prv3lXkY-12" style="edgeStyle=orthogonalEdgeStyle;rounded=0;orthogonalLoop=1;jettySize=auto;html=1;" edge="1" parent="1" source="vy3aPQ3eziD7prv3lXkY-18" target="vy3aPQ3eziD7prv3lXkY-5">
          <mxGeometry relative="1" as="geometry">
            <Array as="points">
              <mxPoint x="310" y="2140" />
              <mxPoint x="310" y="2140" />
            </Array>
          </mxGeometry>
        </mxCell>
        <mxCell id="vy3aPQ3eziD7prv3lXkY-18" value="" style="rounded=0;whiteSpace=wrap;html=1;" vertex="1" parent="1">
          <mxGeometry x="350" y="1880" width="15" height="480" as="geometry" />
        </mxCell>
        <mxCell id="vy3aPQ3eziD7prv3lXkY-19" value="提交评论内容" style="text;html=1;strokeColor=none;fillColor=none;align=center;verticalAlign=middle;whiteSpace=wrap;rounded=0;" vertex="1" parent="1">
          <mxGeometry x="228.38" y="2020" width="75.75" height="20" as="geometry" />
        </mxCell>
        <mxCell id="vy3aPQ3eziD7prv3lXkY-20" value="评论审核申请" style="text;html=1;strokeColor=none;fillColor=none;align=center;verticalAlign=middle;whiteSpace=wrap;rounded=0;" vertex="1" parent="1">
          <mxGeometry x="530" y="2050" width="80" height="20" as="geometry" />
        </mxCell>
        <mxCell id="vy3aPQ3eziD7prv3lXkY-21" value="审核通过" style="text;html=1;strokeColor=none;fillColor=none;align=center;verticalAlign=middle;whiteSpace=wrap;rounded=0;" vertex="1" parent="1">
          <mxGeometry x="530" y="2090" width="60" height="20" as="geometry" />
        </mxCell>
        <mxCell id="vy3aPQ3eziD7prv3lXkY-22" value="评论发布" style="text;html=1;strokeColor=none;fillColor=none;align=center;verticalAlign=middle;whiteSpace=wrap;rounded=0;" vertex="1" parent="1">
          <mxGeometry x="238.75" y="2120" width="55" height="20" as="geometry" />
        </mxCell>
        <mxCell id="vy3aPQ3eziD7prv3lXkY-33" value="进行评论" style="text;html=1;strokeColor=none;fillColor=none;align=center;verticalAlign=middle;whiteSpace=wrap;rounded=0;" vertex="1" parent="1">
          <mxGeometry x="229.25" y="1940" width="74" height="20" as="geometry" />
        </mxCell>
        <mxCell id="vy3aPQ3eziD7prv3lXkY-34" value="请求评论信息" style="text;html=1;strokeColor=none;fillColor=none;align=center;verticalAlign=middle;whiteSpace=wrap;rounded=0;" vertex="1" parent="1">
          <mxGeometry x="225.88" y="1980" width="80.75" height="20" as="geometry" />
        </mxCell>
      </root>
    </mxGraphModel>
  </diagram>
</mxfile>
